<?xml version="1.0" standalone="no"?>
<!DOCTYPE svg PUBLIC "-//W3C//DTD SVG 20010904//EN"
 "http://www.w3.org/TR/2001/REC-SVG-20010904/DTD/svg10.dtd">
<svg version="1.0" xmlns="http://www.w3.org/2000/svg"
 width="1024.000000pt" height="1024.000000pt" viewBox="0 0 1024.000000 1024.000000"
 preserveAspectRatio="xMidYMid meet">
<metadata>
Created by potrace 1.16, written by Peter Selinger 2001-2019
</metadata>
<g transform="translate(0.000000,1024.000000) scale(0.100000,-0.100000)"
fill="#000000" stroke="none">
<path d="M2080 6660 c-329 -34 -627 -176 -861 -409 -202 -203 -333 -448 -396
-741 -25 -118 -25 -418 0 -543 104 -515 455 -921 943 -1090 171 -59 255 -72
469 -72 148 0 209 4 275 19 413 90 752 337 958 699 375 659 182 1484 -447
1907 -146 98 -361 183 -546 215 -108 18 -292 25 -395 15z m230 -301 c90 -14
180 -58 246 -121 101 -95 144 -200 144 -349 l0 -89 119 0 c128 0 166 -8 175
-37 3 -10 24 -169 46 -353 22 -184 54 -450 71 -590 42 -348 37 -403 -47 -484
-70 -68 -49 -67 -855 -64 l-724 3 -41 22 c-82 44 -134 130 -134 219 0 22 15
165 34 319 19 154 51 424 72 600 47 395 30 365 209 365 l125 0 0 78 c0 144 44
256 140 353 107 108 258 154 420 128z"/>
<path d="M2123 6196 c-135 -44 -206 -143 -219 -308 l-7 -88 327 0 326 0 0 67
c0 144 -61 253 -174 310 -62 31 -187 41 -253 19z"/>
<path d="M1580 5653 c0 -5 -9 -82 -20 -173 -78 -654 -110 -931 -110 -963 0
-26 8 -46 28 -67 l27 -31 720 1 720 0 28 30 c21 24 27 40 27 76 0 42 -112
1023 -125 1102 l-6 32 -644 0 c-355 0 -645 -3 -645 -7z m525 -317 c28 -13 65
-40 84 -59 l34 -36 54 49 c30 27 71 54 91 60 151 41 285 -60 287 -215 0 -115
-64 -204 -301 -416 l-124 -111 -33 25 c-74 57 -260 232 -307 288 -77 93 -94
132 -94 214 0 76 13 111 61 159 66 67 161 83 248 42z"/>
<path d="M7108 6061 c-29 -26 -33 -35 -33 -80 0 -64 31 -100 93 -108 99 -13
162 71 120 162 -27 61 -126 74 -180 26z"/>
<path d="M3980 5556 l0 -516 193 0 c259 0 356 22 431 96 63 64 90 168 67 261
-23 89 -85 142 -194 168 l-48 11 50 18 c125 44 176 157 135 295 -22 74 -74
124 -161 152 -58 18 -99 22 -270 27 l-203 5 0 -517z m374 338 c57 -20 86 -60
86 -119 0 -92 -63 -135 -195 -135 l-80 0 0 135 0 135 71 0 c39 0 92 -7 118
-16z m64 -428 c109 -57 88 -215 -33 -247 -22 -6 -80 -12 -128 -13 l-88 -1 0
143 c0 78 1 143 1 145 0 1 48 -1 107 -4 73 -4 119 -11 141 -23z"/>
<path d="M6270 5556 l0 -516 95 0 95 0 0 205 0 205 58 0 59 0 107 -205 108
-205 109 0 c60 0 109 3 109 6 0 3 -45 82 -100 175 -104 176 -144 249 -138 253
2 1 24 14 50 29 100 57 144 150 136 287 -6 97 -36 162 -96 207 -74 56 -122 65
-369 70 l-223 5 0 -516z m424 326 c55 -25 81 -75 72 -140 -13 -97 -56 -124
-203 -130 l-103 -4 0 152 0 153 96 -6 c59 -4 111 -14 138 -25z"/>
<path d="M8180 5555 l0 -515 90 0 90 0 0 244 0 244 35 31 c74 65 140 77 201
36 48 -32 54 -64 54 -320 l0 -235 91 0 91 0 -4 283 c-3 242 -6 288 -21 322
-25 55 -53 84 -112 111 -99 47 -234 21 -299 -57 -14 -16 -27 -29 -30 -29 -3 0
-6 90 -6 200 l0 200 -90 0 -90 0 0 -515z"/>
<path d="M8995 5873 l0 -108 -52 -3 -53 -3 0 -70 0 -69 53 0 54 0 2 -202 c1
-112 7 -221 12 -243 14 -52 82 -119 134 -134 44 -12 120 -14 178 -5 l37 7 0
88 0 88 -31 -11 c-42 -14 -120 -4 -136 18 -10 13 -13 67 -13 206 l0 188 85 0
85 0 0 70 0 70 -85 0 -85 0 0 110 0 110 -92 0 -93 0 0 -107z"/>
<path d="M4770 5514 c0 -279 6 -325 52 -395 32 -47 117 -89 182 -89 84 0 126
17 184 75 l52 52 0 -59 0 -58 85 0 85 0 0 365 0 365 -90 0 -90 0 0 -242 0
-243 -33 -26 c-74 -59 -120 -71 -183 -44 -59 24 -64 51 -64 319 l0 235 -90 3
-90 3 0 -261z"/>
<path d="M5579 5771 l-96 -6 134 -353 c149 -389 150 -396 93 -454 -25 -25 -36
-28 -89 -28 l-61 0 0 -85 0 -84 33 -6 c40 -8 135 8 176 29 72 38 88 70 254
537 86 244 157 446 157 449 0 3 -43 4 -95 2 l-95 -3 -13 -47 c-8 -26 -38 -129
-67 -229 -29 -101 -56 -183 -60 -183 -4 0 -44 106 -90 235 -46 129 -83 234
-84 233 -1 -1 -44 -4 -97 -7z"/>
<path d="M7554 5756 c-61 -28 -116 -91 -146 -165 -33 -81 -32 -259 2 -346 43
-111 155 -195 260 -195 55 0 130 31 171 70 l42 39 -7 -55 c-8 -70 -26 -106
-72 -140 -30 -23 -48 -28 -112 -32 -73 -4 -122 6 -202 42 -13 5 -21 -8 -38
-62 -12 -38 -22 -73 -22 -79 0 -17 101 -52 183 -63 194 -28 351 45 409 188 22
55 23 71 28 435 l5 377 -94 0 -94 0 5 -44 5 -43 -38 38 c-43 43 -89 59 -174
59 -42 0 -75 -7 -111 -24z m249 -152 c74 -38 77 -44 77 -185 l0 -128 -37 -31
c-103 -84 -232 -50 -268 73 -30 101 -14 190 45 249 35 35 42 38 94 38 33 0 71
-7 89 -16z"/>
<path d="M7097 5408 l3 -363 90 -3 90 -3 0 366 0 365 -92 0 -93 0 2 -362z"/>
<path d="M4922 4468 c3 -137 5 -163 18 -163 12 0 16 18 20 80 5 74 7 80 32 95
48 26 62 7 68 -91 4 -69 8 -84 23 -87 15 -3 17 6 17 91 0 85 -2 96 -23 115
-27 26 -64 28 -95 6 l-22 -15 0 65 c0 60 -2 66 -20 66 -20 0 -20 -5 -18 -162z"/>
<path d="M5685 4468 c0 -147 2 -163 18 -166 16 -3 17 10 17 162 0 151 -2 166
-17 166 -16 0 -18 -14 -18 -162z"/>
<path d="M6089 4540 c0 -49 0 -123 -1 -162 0 -59 3 -74 16 -76 14 -3 16 8 16
76 0 85 14 112 57 112 33 0 42 -21 45 -105 3 -67 6 -80 21 -83 15 -3 17 6 17
91 0 85 -2 96 -23 115 -27 26 -64 28 -95 6 l-22 -15 0 65 c0 52 -3 66 -15 66
-12 0 -15 -17 -16 -90z"/>
<path d="M8000 4467 c0 -139 2 -164 15 -164 13 0 15 25 15 164 0 138 -2 163
-15 163 -13 0 -15 -25 -15 -163z"/>
<path d="M8518 4619 c-10 -5 -21 -28 -24 -49 -5 -29 -11 -40 -24 -40 -10 0
-20 -9 -23 -20 -4 -16 0 -20 19 -20 24 0 24 -1 24 -96 0 -86 2 -95 18 -92 14
3 17 17 20 96 l3 92 29 0 c23 0 30 5 30 20 0 16 -7 20 -31 20 -27 0 -30 3 -27
27 2 22 9 29 33 33 18 3 30 11 30 20 0 18 -52 25 -77 9z"/>
<path d="M3957 4470 c-31 -82 -57 -155 -57 -161 0 -27 35 0 49 39 l15 42 66 0
66 0 15 -42 c12 -31 22 -44 39 -46 16 -3 21 0 18 10 -3 7 -29 79 -59 160 -72
198 -75 198 -152 -2z m119 -22 c5 -16 -2 -18 -45 -18 l-51 0 19 48 c10 26 21
56 25 67 6 17 11 12 27 -30 10 -27 22 -58 25 -67z"/>
<path d="M5160 4595 c0 -18 5 -25 20 -25 15 0 20 7 20 25 0 18 -5 25 -20 25
-15 0 -20 -7 -20 -25z"/>
<path d="M7054 4605 c-4 -9 -2 -21 4 -27 15 -15 44 -1 40 19 -4 23 -36 29 -44
8z"/>
<path d="M4780 4551 c0 -24 -3 -28 -20 -24 -15 4 -20 0 -20 -16 0 -14 6 -21
20 -21 18 0 20 -7 20 -75 0 -86 20 -119 68 -113 38 4 42 36 5 40 -28 3 -28 4
-31 76 l-3 72 31 0 c23 0 30 4 30 19 0 15 -6 19 -30 17 -27 -2 -30 1 -30 26 0
21 -5 28 -20 28 -15 0 -20 -7 -20 -29z"/>
<path d="M8328 4553 c-2 -20 -9 -28 -23 -28 -26 0 -26 -28 0 -36 16 -4 20 -14
21 -55 1 -27 2 -64 3 -82 1 -38 34 -59 76 -48 34 9 27 29 -11 36 -29 5 -29 6
-32 78 l-3 72 35 0 c27 0 34 4 31 18 -2 12 -11 17 -34 16 -28 -2 -31 1 -31 27
0 38 -27 39 -32 2z"/>
<path d="M4204 4517 c-2 -7 -3 -58 -2 -113 3 -85 5 -99 21 -102 15 -3 17 6 17
77 0 71 2 82 22 95 26 18 64 21 74 5 3 -6 8 -48 10 -92 3 -64 7 -83 19 -85 13
-3 15 12 15 92 0 83 -3 99 -20 116 -24 24 -67 26 -98 4 -20 -14 -22 -14 -22 0
0 19 -29 21 -36 3z"/>
<path d="M4569 4501 c-25 -25 -29 -37 -29 -84 0 -66 25 -103 74 -113 51 -9
123 33 98 58 -7 7 -18 5 -33 -6 -13 -9 -33 -16 -45 -16 -24 0 -54 29 -54 53 0
14 11 17 70 17 l70 0 0 35 c0 80 -92 114 -151 56z m109 -38 c14 -23 14 -23
-42 -23 -60 0 -62 1 -45 31 14 27 66 22 87 -8z"/>
<path d="M5164 4517 c-2 -7 -3 -58 -2 -113 3 -85 5 -99 21 -102 15 -3 17 7 17
112 0 98 -2 116 -15 116 -9 0 -18 -6 -21 -13z"/>
<path d="M5281 4504 c-28 -23 -31 -31 -31 -84 0 -81 28 -115 94 -115 34 0 51
6 68 22 31 32 12 50 -28 27 -41 -23 -78 -13 -94 26 -13 30 -7 74 12 97 14 18
68 16 88 -2 15 -13 19 -14 29 -1 9 11 6 18 -15 35 -37 29 -85 27 -123 -5z"/>
<path d="M5484 4505 c-25 -25 -25 -45 1 -45 7 0 15 7 19 15 3 9 18 15 40 15
26 0 36 -5 41 -21 8 -25 12 -22 -50 -37 -54 -14 -69 -25 -80 -59 -4 -17 1 -29
19 -48 28 -28 62 -32 93 -10 19 13 22 13 27 0 3 -8 13 -15 22 -15 14 0 16 12
12 96 -4 86 -7 99 -27 115 -34 27 -86 25 -117 -6z m106 -110 c0 -19 -35 -55
-54 -55 -52 0 -61 35 -13 55 42 19 67 19 67 0z"/>
<path d="M5912 4514 c-30 -21 -30 -69 1 -88 12 -8 34 -18 50 -21 33 -9 51 -37
35 -53 -17 -17 -48 -15 -69 4 -12 10 -23 13 -33 7 -14 -8 -14 -11 -1 -30 28
-40 111 -39 137 1 14 20 8 63 -9 78 -10 9 -35 21 -55 28 -48 15 -54 50 -10 50
15 0 33 -5 40 -12 8 -8 15 -8 28 3 15 12 14 15 -6 31 -27 22 -78 23 -108 2z"/>
<path d="M6340 4502 c-78 -79 -19 -217 84 -198 93 18 118 169 35 211 -45 24
-87 19 -119 -13z m114 -34 c35 -49 9 -128 -42 -128 -33 0 -45 8 -62 39 -13 25
-7 75 11 98 19 22 76 16 93 -9z"/>
<path d="M6550 4375 c0 -148 1 -155 20 -155 18 0 20 7 20 56 0 55 0 55 22 40
29 -21 63 -20 98 1 68 40 68 163 -1 199 -35 18 -57 18 -91 0 -24 -13 -28 -13
-28 0 0 8 -9 14 -20 14 -19 0 -20 -7 -20 -155z m150 95 c25 -25 27 -86 3 -112
-21 -24 -68 -23 -93 2 -43 43 -13 130 45 130 14 0 34 -9 45 -20z"/>
<path d="M6810 4375 c0 -141 2 -155 18 -155 15 0 17 8 14 56 l-4 57 23 -17
c29 -20 61 -20 99 -1 37 19 50 43 50 94 0 56 -15 88 -49 106 -37 19 -58 19
-93 1 -24 -13 -28 -13 -28 0 0 8 -7 14 -15 14 -13 0 -15 -24 -15 -155z m145
95 c42 -46 11 -130 -46 -130 -60 0 -89 72 -48 124 25 32 68 35 94 6z"/>
<path d="M7060 4415 c0 -106 2 -116 18 -113 15 3 17 16 17 113 0 97 -2 110
-17 113 -16 3 -18 -7 -18 -113z"/>
<path d="M7160 4416 c0 -103 2 -114 18 -112 14 2 17 16 20 81 3 83 15 104 58
105 36 0 44 -20 44 -108 0 -74 2 -83 18 -80 15 3 17 16 17 95 0 75 -4 95 -19
112 -22 24 -64 27 -92 6 -25 -19 -35 -19 -28 0 4 10 0 15 -15 15 -20 0 -21 -5
-21 -114z"/>
<path d="M7413 4506 c-25 -22 -28 -31 -28 -85 0 -52 4 -64 27 -87 28 -28 74
-36 112 -19 16 7 17 5 11 -16 -4 -13 -12 -30 -17 -36 -14 -17 -59 -16 -85 2
-17 12 -23 12 -32 1 -23 -27 52 -65 104 -52 13 3 34 16 45 28 18 20 20 35 20
155 0 108 -3 133 -14 133 -8 0 -16 -5 -18 -11 -3 -9 -9 -9 -25 0 -34 18 -70
13 -100 -13z m111 -38 c21 -29 20 -87 -1 -110 -23 -25 -68 -23 -87 4 -21 29
-20 92 0 112 23 24 70 20 88 -6z"/>
<path d="M7750 4376 c0 -142 2 -156 18 -156 14 0 17 9 15 55 -1 59 1 62 31 40
45 -34 118 0 137 63 28 96 -66 191 -137 137 -23 -18 -35 -19 -31 -3 1 6 -6 14
-15 16 -17 3 -18 -9 -18 -152z m150 92 c30 -32 22 -96 -14 -120 -36 -24 -92 8
-102 57 -13 68 70 113 116 63z"/>
<path d="M8123 4518 c-26 -13 -38 -37 -24 -51 7 -7 17 -5 30 7 27 24 75 18 79
-10 3 -18 -4 -22 -36 -28 -54 -8 -92 -40 -92 -76 0 -50 63 -77 106 -45 25 19
34 19 34 0 0 -9 9 -15 21 -15 15 0 19 4 15 16 -3 9 -6 51 -6 95 0 66 -3 82
-20 99 -22 22 -71 26 -107 8z m87 -128 c0 -23 -41 -53 -67 -48 -26 5 -22 40 7
55 37 19 60 16 60 -7z"/>
<path d="M8658 4514 c-17 -9 -32 -28 -39 -53 -25 -85 18 -156 95 -156 50 0 73
16 93 64 43 102 -54 197 -149 145z m108 -49 c12 -18 15 -37 11 -63 -15 -92
-127 -81 -127 13 0 46 25 75 65 75 26 0 39 -6 51 -25z"/>
<path d="M8860 4414 c0 -99 2 -115 15 -112 12 2 17 20 19 80 3 83 15 108 51
108 27 0 42 28 19 37 -8 3 -26 1 -40 -5 -15 -7 -24 -8 -24 -2 0 6 -9 10 -20
10 -19 0 -20 -7 -20 -116z"/>
<path d="M9010 4414 c0 -105 2 -115 18 -112 14 3 18 16 20 78 3 82 18 110 59
110 31 0 43 -33 43 -121 0 -55 3 -69 15 -69 12 0 15 15 15 75 0 62 4 79 20 95
23 23 50 26 68 8 7 -7 12 -44 12 -95 0 -76 2 -83 20 -83 18 0 20 7 20 89 0 74
-3 92 -21 115 -25 31 -66 35 -99 8 -23 -18 -24 -18 -42 0 -22 22 -56 23 -86 2
-20 -14 -22 -14 -22 0 0 9 -9 16 -20 16 -19 0 -20 -7 -20 -116z"/>
</g>
</svg>
